<?xml version="1.0" encoding="utf-8"?>
<!-- Generator: Adobe Illustrator 18.0.0, SVG Export Plug-In . SVG Version: 6.00 Build 0)  -->
<!DOCTYPE svg PUBLIC "-//W3C//DTD SVG 1.1//EN" "http://www.w3.org/Graphics/SVG/1.1/DTD/svg11.dtd">
<svg version="1.1" id="Layer_1" xmlns="http://www.w3.org/2000/svg" xmlns:xlink="http://www.w3.org/1999/xlink" x="0px" y="0px"
	 viewBox="0 0 90 34" enable-background="new 0 0 90 34" xml:space="preserve">
<path fill="#78a5c8" d="M47.4,7.2c-5.4,0-9.8,4.4-9.8,9.8s4.4,9.8,9.8,9.8s9.8-4.4,9.8-9.8S52.8,7.2,47.4,7.2z M47.4,22.4
	c-3,0-5.4-2.4-5.4-5.4s2.4-5.4,5.4-5.4s5.4,2.4,5.4,5.4C52.8,20,50.4,22.4,47.4,22.4z M79.2,7.2c-5.4,0-9.8,4.4-9.8,9.8
	s4.4,9.8,9.8,9.8S89,22.4,89,17S84.6,7.2,79.2,7.2z M79.2,22.4c-3,0-5.4-2.4-5.4-5.4s2.4-5.4,5.4-5.4s5.4,2.4,5.4,5.4
	S82.2,22.4,79.2,22.4z M64.1,7.2h4.4v4.4c0,5.4-4.4,9.8-9.8,9.8V17c3,0,5.4-2.4,5.4-5.4V7.2z M35.9,17v4.4h-4.4V17
	c0-3-2.4-5.4-5.4-5.4S20.7,14,20.7,17v4.4h-4.4V17c0-3-2.4-5.4-5.4-5.4S5.5,14,5.5,17v4.4H1V17c0-5.4,4.4-9.8,9.8-9.8
	c3.1,0,5.8,1.4,7.6,3.6C20.2,8.6,23,7.2,26,7.2C31.5,7.2,35.9,11.6,35.9,17z"/>
</svg>
